# xmcd
#
# Track frame offsets: 
#        150
#        18788
#        35534
#        55683
#        74126
#        93798
#        116757
#        136268
#        155441
#        182215
#        201867
#        224571
#
# Disc length: 3301 seconds
#
# Revision: 0
# Processed by: cddbd v1.5.2PL0 Copyright (c) Steve Scherf et al.
# Submitted via: ExactAudioCopy v0.99pb5
#
DISCID=ac0ce30c
DTITLE=The Hamsters - The Jimi Hendrix 40Th Anniversary Concerts 2010 
DTITLE=Disc 1
DYEAR=2011
DGENRE=Blues-Rock
TTITLE0=Killing Floor
TTITLE1=Are You Experienced?
TTITLE2=Fire
TTITLE3=Highway Chile
TTITLE4=The Wind Cries Mary
TTITLE5=Izabella
TTITLE6=Manic Depression
TTITLE7=Burning Of The Midnight Lamp
TTITLE8=Hey Baby (New Rising Sun)
TTITLE9=Room Full Of Mirrors
TTITLE10=Ezy Rider
TTITLE11=Foxy Lady
EXTD=
EXTT0=
EXTT1=
EXTT2=
EXTT3=
EXTT4=
EXTT5=
EXTT6=
EXTT7=
EXTT8=
EXTT9=
EXTT10=
EXTT11=
PLAYORDER=
